<?xml version="1.0" standalone="no"?>
<!DOCTYPE svg PUBLIC "-//W3C//DTD SVG 20010904//EN"
 "http://www.w3.org/TR/2001/REC-SVG-20010904/DTD/svg10.dtd">
<svg version="1.0" xmlns="http://www.w3.org/2000/svg"
 width="700.000000pt" height="700.000000pt" viewBox="0 0 700.000000 700.000000"
 preserveAspectRatio="xMidYMid meet">
<metadata>
Created by potrace 1.14, written by Peter Selinger 2001-2017
</metadata>
<g transform="translate(0.000000,700.000000) scale(0.100000,-0.100000)"
fill="#000000" stroke="none">
<path d="M870 5690 c0 -242 3 -440 8 -440 105 -1 435 -26 551 -40 1726 -221
3152 -1440 3641 -3113 88 -298 151 -664 165 -942 3 -66 8 -157 11 -202 l6 -83
439 0 439 0 0 68 c0 107 -19 385 -36 532 -162 1407 -880 2685 -1999 3555 -753
586 -1660 956 -2620 1069 -139 17 -427 36 -537 36 l-68 0 0 -440z"/>
<path d="M870 3940 c0 -345 3 -440 13 -440 84 -1 333 -25 425 -40 548 -94
1023 -340 1418 -734 378 -379 613 -818 719 -1341 23 -114 37 -233 51 -427 l6
-88 439 0 439 0 0 58 c0 179 -39 500 -85 707 -65 289 -143 511 -275 780 -514
1047 -1500 1764 -2655 1929 -121 17 -347 36 -437 36 l-58 0 0 -440z"/>
<path d="M1623 2621 c-123 -20 -277 -81 -382 -153 -75 -52 -193 -179 -243
-265 -188 -317 -162 -707 65 -998 181 -233 494 -363 784 -327 417 53 722 359
775 779 44 348 -159 721 -476 877 -153 75 -369 111 -523 87z"/>
</g>
</svg>
